<svg width="13" height="13" viewBox="0 0 13 13" fill="none" xmlns="http://www.w3.org/2000/svg">
<path d="M10.9688 2.53906H8.83614V2.03125C8.8358 1.73506 8.71799 1.45109 8.50855 1.24165C8.29911 1.03221 8.01514 0.914397 7.71895 0.914062H5.28145C4.98525 0.914397 4.70129 1.03221 4.49185 1.24165C4.28241 1.45109 4.1646 1.73506 4.16426 2.03125V2.53906H2.03125C1.95044 2.53906 1.87294 2.57116 1.8158 2.6283C1.75866 2.68544 1.72656 2.76294 1.72656 2.84375C1.72656 2.92456 1.75866 3.00206 1.8158 3.0592C1.87294 3.11634 1.95044 3.14844 2.03125 3.14844H2.53906V10.5625C2.53927 10.751 2.61424 10.9317 2.74752 11.065C2.88081 11.1983 3.06151 11.2732 3.25 11.2734H9.75C9.93849 11.2732 10.1192 11.1983 10.2525 11.065C10.3858 10.9317 10.4607 10.751 10.4609 10.5625V3.14844H10.9688C11.0496 3.14844 11.1271 3.11634 11.1842 3.0592C11.2413 3.00206 11.2734 2.92456 11.2734 2.84375C11.2734 2.76294 11.2413 2.68544 11.1842 2.6283C11.1271 2.57116 11.0496 2.53906 10.9688 2.53906ZM4.77364 2.03125C4.77379 1.89662 4.82734 1.76754 4.92254 1.67234C5.01774 1.57714 5.14681 1.52359 5.28145 1.52344H7.71895C7.85358 1.52359 7.98266 1.57714 8.07786 1.67234C8.17306 1.76754 8.22661 1.89662 8.22676 2.03125V2.53906H4.77364V2.03125ZM9.85156 10.5625C9.85153 10.5894 9.84082 10.6152 9.82178 10.6343C9.80274 10.6533 9.77693 10.664 9.75 10.6641H3.25C3.22307 10.664 3.19726 10.6533 3.17822 10.6343C3.15918 10.6152 3.14847 10.5894 3.14844 10.5625V3.14844H9.85156V10.5625ZM5.58614 5.28125V8.53125C5.58614 8.61206 5.55404 8.68956 5.4969 8.7467C5.43976 8.80384 5.36226 8.83594 5.28145 8.83594C5.20064 8.83594 5.12314 8.80384 5.066 8.7467C5.00886 8.68956 4.97676 8.61206 4.97676 8.53125V5.28125C4.97676 5.20044 5.00886 5.12294 5.066 5.0658C5.12314 5.00866 5.20064 4.97656 5.28145 4.97656C5.36226 4.97656 5.43976 5.00866 5.4969 5.0658C5.55404 5.12294 5.58614 5.20044 5.58614 5.28125ZM8.02364 5.28125V8.53125C8.02364 8.61206 7.99154 8.68956 7.9344 8.7467C7.87726 8.80384 7.79976 8.83594 7.71895 8.83594C7.63814 8.83594 7.56064 8.80384 7.5035 8.7467C7.44636 8.68956 7.41426 8.61206 7.41426 8.53125V5.28125C7.41426 5.20044 7.44636 5.12294 7.5035 5.0658C7.56064 5.00866 7.63814 4.97656 7.71895 4.97656C7.79976 4.97656 7.87726 5.00866 7.9344 5.0658C7.99154 5.12294 8.02364 5.20044 8.02364 5.28125Z" fill="#FF5353"/>
</svg>
