<svg width="24" height="24" viewBox="0 0 24 24" fill="none" xmlns="http://www.w3.org/2000/svg">
<path d="M15 2V3H5C4.44772 3 4 3.44772 4 4V20C4 20.5523 4.44772 21 5 21H19C19.5523 21 20 20.5523 20 20V10H21V20C21 21.1046 20.1046 22 19 22H5C3.89543 22 3 21.1046 3 20V4C3 2.89543 3.89543 2 5 2H15ZM7.5 11H12.5C12.7761 11 13 11.2239 13 11.5C13 11.7761 12.7761 12 12.5 12H7.5C7.22386 12 7 11.7761 7 11.5C7 11.2239 7.22386 11 7.5 11ZM14.4645 9.32843L20.8284 2.96447C21.0237 2.7692 21.3403 2.7692 21.5355 2.96447C21.7308 3.15973 21.7308 3.47631 21.5355 3.67157L15.1716 10.0355C14.9763 10.2308 14.6597 10.2308 14.4645 10.0355C14.2692 9.84027 14.2692 9.52369 14.4645 9.32843ZM7.5 14H16.5C16.7761 14 17 14.2239 17 14.5C17 14.7761 16.7761 15 16.5 15H7.5C7.22386 15 7 14.7761 7 14.5C7 14.2239 7.22386 14 7.5 14Z" fill="#333333"/>
</svg>
