<?xml version="1.0" standalone="no"?>
<!DOCTYPE svg PUBLIC "-//W3C//DTD SVG 20010904//EN"
 "http://www.w3.org/TR/2001/REC-SVG-20010904/DTD/svg10.dtd">
<svg version="1.0" xmlns="http://www.w3.org/2000/svg"
 width="512.000000pt" height="478.000000pt" viewBox="0 0 512.000000 478.000000"
 preserveAspectRatio="xMidYMid meet">

<g transform="translate(0.000000,478.000000) scale(0.100000,-0.100000)"
fill="#000000" stroke="none">
<path d="M2365 4770 c-202 -17 -457 -68 -631 -125 -347 -115 -675 -324 -965
-614 -226 -227 -408 -481 -549 -766 -169 -341 -228 -599 -217 -938 8 -254 48
-420 152 -633 71 -147 151 -253 304 -404 215 -213 403 -318 691 -387 90 -21
137 -26 326 -30 143 -4 257 -1 325 7 496 57 1017 285 1311 574 180 176 294
390 334 628 25 149 15 476 -19 638 -52 243 -130 396 -281 546 -185 184 -370
256 -661 257 -228 1 -381 -33 -557 -125 -239 -124 -328 -361 -217 -585 37 -77
113 -157 176 -186 68 -31 180 -30 245 2 93 45 156 132 167 230 5 50 9 55 36
64 56 17 235 13 293 -7 104 -35 181 -140 217 -296 23 -98 32 -383 16 -463 -52
-245 -322 -465 -740 -601 -211 -69 -309 -87 -517 -93 -203 -6 -302 4 -415 42
-263 90 -496 343 -569 620 -15 54 -23 124 -27 216 -10 231 31 405 152 654 173
358 462 688 785 898 281 182 572 270 975 293 205 11 459 -22 663 -87 305 -98
520 -258 849 -632 231 -263 374 -501 452 -752 50 -162 65 -269 65 -460 1 -148
-2 -180 -22 -248 -25 -86 -74 -191 -123 -264 -94 -140 -311 -357 -488 -491
-222 -167 -633 -368 -1201 -586 -124 -47 -249 -98 -278 -112 -100 -51 -152
-140 -152 -263 0 -199 196 -337 386 -272 329 111 899 354 1179 502 325 172
490 294 760 564 280 280 410 485 492 780 27 99 28 103 28 395 0 285 -1 299
-28 425 -105 490 -354 906 -831 1393 -389 397 -775 596 -1316 677 -126 19
-437 27 -575 15z"/>
</g>
</svg>
