<svg width="307" height="495" viewBox="0 0 307 495" fill="none" xmlns="http://www.w3.org/2000/svg">
<path d="M79.5479 453.847L91.7825 478.316L68.4255 495H49.206L30.6094 460.521L79.5479 453.847Z" fill="#231F20"/>
<path d="M198 8.39737L219.132 5.06067L306.999 176.345L296.989 234.181L306.999 251.977V324.339L247.495 363.756L256.392 379.328L221.913 391.562L214.127 378.215L206.342 380.44L203.005 386.001L185.209 394.899L180.76 386.001L95.1179 433.827L61.7507 424.929L25.0469 447.174L10.5878 419.368L17.2612 408.246L10.5878 391.551L8.36328 375.991L26.1591 349.297L19.4857 337.063L38.3937 317.042L45.0671 329.277L52.8528 305.92L55.0773 278.114H68.4241V255.87L29.4958 178.013L57.3018 159.105L29.4958 119.065L49.5161 59.004L151.842 26.004L162.964 36.7594L178.035 37.6269V27.2609L199.668 16.7391L198 8.39737Z" fill="#231F20"/>
<path d="M190.215 3.94843L211.347 0.611725L299.214 171.896L289.204 229.732L299.214 247.528V319.89L239.709 359.307L248.607 374.879L214.128 387.113L206.342 373.766L198.557 375.991L195.22 381.552L177.424 390.45L172.975 381.552L87.3327 429.378L53.9656 420.48L17.2617 442.725L2.8026 414.919L9.47603 403.797L2.8026 387.102L0.578125 371.542L18.3739 344.848L11.7005 332.614L30.6086 312.594L37.282 324.828L45.0677 301.471L47.2921 273.665H60.639V251.421L21.7107 173.564L49.5166 154.656L21.7107 114.616L41.7309 54.5551L144.057 21.5551L155.179 32.3104L170.25 33.178V22.8119L191.883 12.2902L190.215 3.94843Z" fill="white" stroke="#231F20" stroke-miterlimit="10"/>
<path d="M75.0986 451.623L87.3333 476.092L63.9763 492.776H44.7568L26.1602 458.296L75.0986 451.623Z" fill="white" stroke="#231F20" stroke-miterlimit="10"/>
<path d="M162.732 387.269V323.037H102.905V302.583H45.0684" stroke="#231F20" stroke-linecap="round" stroke-linejoin="round"/>
<path d="M296.434 291.461H188.592V269.65H147.395V323.037" stroke="#231F20" stroke-linecap="round" stroke-linejoin="round"/>
<path d="M60.6387 251.421H186.711V224.427H170.372V181.35H221.913V145.291H170.75H117.196V188.023H138.495L138.974 251.421" stroke="#231F20" stroke-linecap="round" stroke-linejoin="round"/>
<path d="M291.54 156.925H221.914" stroke="#231F20" stroke-miterlimit="10"/>
<path d="M162.732 269.65V251.421" stroke="#231F20" stroke-linecap="round" stroke-linejoin="round"/>
<path d="M117.197 145.291H45.0684" stroke="#231F20" stroke-linecap="round" stroke-linejoin="round"/>
<path d="M141.276 145.291V91.2589H131.822V26.5713" stroke="#231F20" stroke-linecap="round" stroke-linejoin="round"/>
<rect x="33.5" y="42.5" width="55" height="37" rx="4.5" fill="white" stroke="#202020"/>
<path d="M58.16 50.57H56.27C55.73 51.95 54.28 52.86 52.19 53.47L51.69 52.33C53.84 51.72 55 50.8 55.18 49.85H51.96V48.69H56.5V49.26C56.5 49.36 56.5 49.46 56.49 49.55H58.16V48.25H59.44V53.33H58.16V52.42H56.28V51.4H58.16V50.57ZM55.16 53.74H57.29C58.63 53.74 59.55 54.53 59.55 55.71C59.55 56.9 58.63 57.68 57.29 57.68H55.16C53.83 57.68 52.91 56.9 52.91 55.71C52.91 54.53 53.83 53.74 55.16 53.74ZM55.35 56.54H57.1C57.88 56.54 58.27 56.2 58.27 55.7C58.27 55.21 57.88 54.87 57.1 54.87H55.35C54.58 54.87 54.18 55.21 54.18 55.7C54.18 56.2 54.58 56.54 55.35 56.54ZM67.6424 57.58V48.24H68.9224V57.58H67.6424ZM64.7424 50.1H61.4324V48.93H66.0424V49.85C66.0424 52.51 64.5824 54.81 61.9424 56.52L61.1624 55.51C63.6324 53.96 64.7424 51.87 64.7424 50.1Z" fill="#222222"/>
<path d="M51.98 64.796L50.24 64.232C50.696 62.876 51.86 61.928 53.552 61.928C55.124 61.928 56.816 62.936 56.816 64.808C56.816 66.152 56.156 67.016 54.872 67.64C54.2 67.976 53.996 68.18 53.984 68.612L53.972 69.104H52.22L52.208 68.408C52.196 67.376 52.448 66.884 53.732 66.284C54.548 65.888 54.932 65.504 54.932 64.808C54.932 64.028 54.284 63.644 53.552 63.644C52.712 63.644 52.292 64.028 51.98 64.796ZM53.096 72.452C52.472 72.452 51.968 71.948 51.968 71.324C51.968 70.7 52.472 70.196 53.096 70.196C53.72 70.196 54.224 70.7 54.224 71.324C54.224 71.948 53.72 72.452 53.096 72.452ZM59.1519 64.796L57.4119 64.232C57.8679 62.876 59.0319 61.928 60.7239 61.928C62.2959 61.928 63.9879 62.936 63.9879 64.808C63.9879 66.152 63.3279 67.016 62.0439 67.64C61.3719 67.976 61.1679 68.18 61.1559 68.612L61.1439 69.104H59.3919L59.3799 68.408C59.3679 67.376 59.6199 66.884 60.9039 66.284C61.7199 65.888 62.1039 65.504 62.1039 64.808C62.1039 64.028 61.4559 63.644 60.7239 63.644C59.8839 63.644 59.4639 64.028 59.1519 64.796ZM60.2679 72.452C59.6439 72.452 59.1399 71.948 59.1399 71.324C59.1399 70.7 59.6439 70.196 60.2679 70.196C60.8919 70.196 61.3959 70.7 61.3959 71.324C61.3959 71.948 60.8919 72.452 60.2679 72.452ZM66.3238 64.796L64.5838 64.232C65.0398 62.876 66.2038 61.928 67.8958 61.928C69.4678 61.928 71.1598 62.936 71.1598 64.808C71.1598 66.152 70.4998 67.016 69.2158 67.64C68.5438 67.976 68.3398 68.18 68.3278 68.612L68.3158 69.104H66.5638L66.5518 68.408C66.5398 67.376 66.7918 66.884 68.0758 66.284C68.8918 65.888 69.2758 65.504 69.2758 64.808C69.2758 64.028 68.6278 63.644 67.8958 63.644C67.0558 63.644 66.6358 64.028 66.3238 64.796ZM67.4398 72.452C66.8158 72.452 66.3118 71.948 66.3118 71.324C66.3118 70.7 66.8158 70.196 67.4398 70.196C68.0638 70.196 68.5678 70.7 68.5678 71.324C68.5678 71.948 68.0638 72.452 67.4398 72.452Z" fill="#EF6F12"/>
<rect x="176.5" y="53.5" width="55" height="37" rx="4.5" fill="white" stroke="#202020"/>
<path d="M201.92 59.25V61.07H203.27V62.22H201.92V64.33H200.64V59.25H201.92ZM199.18 59.69V60.26C199.18 62.41 197.56 63.68 194.89 64.47L194.39 63.33C196.52 62.72 197.68 61.8 197.86 60.85H194.67V59.69H199.18ZM197.83 64.74H199.87C201.2 64.74 202.12 65.53 202.12 66.71C202.12 67.9 201.2 68.68 199.87 68.68H197.83C196.5 68.68 195.57 67.9 195.57 66.71C195.57 65.53 196.5 64.74 197.83 64.74ZM198.01 67.54H199.69C200.45 67.54 200.84 67.2 200.84 66.7C200.84 66.21 200.45 65.87 199.69 65.87H198.01C197.25 65.87 196.85 66.21 196.85 66.7C196.85 67.2 197.25 67.54 198.01 67.54ZM208.272 65.98V65.03H210.642V59.24H211.922V66.63H210.642V65.98H208.272ZM206.882 63.03C205.412 63.03 204.302 62.43 204.302 61.27V61.17C204.302 59.99 205.412 59.39 206.882 59.39C208.342 59.39 209.452 59.99 209.452 61.17V61.27C209.452 62.43 208.342 63.03 206.882 63.03ZM205.502 61.18V61.25C205.502 61.75 206.082 62 206.882 62C207.672 62 208.252 61.75 208.252 61.25V61.18C208.252 60.68 207.672 60.42 206.882 60.42C206.082 60.42 205.502 60.68 205.502 61.18ZM206.142 64.66C205.912 64.67 205.692 64.67 205.482 64.67H203.972L203.922 63.61H205.602C206.742 63.61 208.502 63.51 209.982 63.34L210.112 64.37C209.272 64.49 208.302 64.57 207.382 64.62C207.352 65.07 207.312 65.56 207.262 66.05L206.042 65.97C206.082 65.53 206.112 65.09 206.142 64.66ZM206.762 66.34V67.42H212.262V68.58H205.482V66.34H206.762Z" fill="#222222"/>
<path d="M194.98 75.796L193.24 75.232C193.696 73.876 194.86 72.928 196.552 72.928C198.124 72.928 199.816 73.936 199.816 75.808C199.816 77.152 199.156 78.016 197.872 78.64C197.2 78.976 196.996 79.18 196.984 79.612L196.972 80.104H195.22L195.208 79.408C195.196 78.376 195.448 77.884 196.732 77.284C197.548 76.888 197.932 76.504 197.932 75.808C197.932 75.028 197.284 74.644 196.552 74.644C195.712 74.644 195.292 75.028 194.98 75.796ZM196.096 83.452C195.472 83.452 194.968 82.948 194.968 82.324C194.968 81.7 195.472 81.196 196.096 81.196C196.72 81.196 197.224 81.7 197.224 82.324C197.224 82.948 196.72 83.452 196.096 83.452ZM202.152 75.796L200.412 75.232C200.868 73.876 202.032 72.928 203.724 72.928C205.296 72.928 206.988 73.936 206.988 75.808C206.988 77.152 206.328 78.016 205.044 78.64C204.372 78.976 204.168 79.18 204.156 79.612L204.144 80.104H202.392L202.38 79.408C202.368 78.376 202.62 77.884 203.904 77.284C204.72 76.888 205.104 76.504 205.104 75.808C205.104 75.028 204.456 74.644 203.724 74.644C202.884 74.644 202.464 75.028 202.152 75.796ZM203.268 83.452C202.644 83.452 202.14 82.948 202.14 82.324C202.14 81.7 202.644 81.196 203.268 81.196C203.892 81.196 204.396 81.7 204.396 82.324C204.396 82.948 203.892 83.452 203.268 83.452ZM209.324 75.796L207.584 75.232C208.04 73.876 209.204 72.928 210.896 72.928C212.468 72.928 214.16 73.936 214.16 75.808C214.16 77.152 213.5 78.016 212.216 78.64C211.544 78.976 211.34 79.18 211.328 79.612L211.316 80.104H209.564L209.552 79.408C209.54 78.376 209.792 77.884 211.076 77.284C211.892 76.888 212.276 76.504 212.276 75.808C212.276 75.028 211.628 74.644 210.896 74.644C210.056 74.644 209.636 75.028 209.324 75.796ZM210.44 83.452C209.816 83.452 209.312 82.948 209.312 82.324C209.312 81.7 209.816 81.196 210.44 81.196C211.064 81.196 211.568 81.7 211.568 82.324C211.568 82.948 211.064 83.452 210.44 83.452Z" fill="#EF6F12"/>
<rect x="1.5" y="103.5" width="55" height="37" rx="4.5" fill="white" stroke="#202020"/>
<path d="M27.44 116.15H26.16V109.24H27.44V116.15ZM22.23 114.75C20.8 114.75 19.65 113.93 19.65 112.18V112.03C19.65 110.26 20.8 109.44 22.23 109.44C23.65 109.44 24.79 110.26 24.79 112.03V112.18C24.79 113.93 23.65 114.75 22.23 114.75ZM22.23 113.63C22.93 113.63 23.52 113.17 23.52 112.17V112.03C23.52 111.03 22.93 110.56 22.23 110.56C21.51 110.56 20.93 111.03 20.93 112.03V112.17C20.93 113.17 21.51 113.63 22.23 113.63ZM27.79 118.58H21.1V115.52H22.38V117.42H27.79V118.58ZM34.0324 115.22L31.6824 113.5C31.2124 114.19 30.4824 114.79 29.5224 115.36L28.8924 114.35C30.3524 113.46 31.0524 112.54 31.1424 111.43H29.2124V110.29H31.1624V109.19H32.4024V110.29H34.4024V111.43H32.3824C32.3724 111.78 32.3124 112.12 32.2124 112.43L34.7224 114.21L34.0324 115.22ZM34.0124 112.98V111.89H35.6424V109.24H36.9224V116.24H35.6424V112.98H34.0124ZM31.8624 115.76V117.42H37.2624V118.58H30.5824V115.76H31.8624Z" fill="#222222"/>
<path d="M19.98 125.796L18.24 125.232C18.696 123.876 19.86 122.928 21.552 122.928C23.124 122.928 24.816 123.936 24.816 125.808C24.816 127.152 24.156 128.016 22.872 128.64C22.2 128.976 21.996 129.18 21.984 129.612L21.972 130.104H20.22L20.208 129.408C20.196 128.376 20.448 127.884 21.732 127.284C22.548 126.888 22.932 126.504 22.932 125.808C22.932 125.028 22.284 124.644 21.552 124.644C20.712 124.644 20.292 125.028 19.98 125.796ZM21.096 133.452C20.472 133.452 19.968 132.948 19.968 132.324C19.968 131.7 20.472 131.196 21.096 131.196C21.72 131.196 22.224 131.7 22.224 132.324C22.224 132.948 21.72 133.452 21.096 133.452ZM27.1519 125.796L25.4119 125.232C25.8679 123.876 27.0319 122.928 28.7239 122.928C30.2959 122.928 31.9879 123.936 31.9879 125.808C31.9879 127.152 31.3279 128.016 30.0439 128.64C29.3719 128.976 29.1679 129.18 29.1559 129.612L29.1439 130.104H27.3919L27.3799 129.408C27.3679 128.376 27.6199 127.884 28.9039 127.284C29.7199 126.888 30.1039 126.504 30.1039 125.808C30.1039 125.028 29.4559 124.644 28.7239 124.644C27.8839 124.644 27.4639 125.028 27.1519 125.796ZM28.2679 133.452C27.6439 133.452 27.1399 132.948 27.1399 132.324C27.1399 131.7 27.6439 131.196 28.2679 131.196C28.8919 131.196 29.3959 131.7 29.3959 132.324C29.3959 132.948 28.8919 133.452 28.2679 133.452ZM34.3238 125.796L32.5838 125.232C33.0398 123.876 34.2038 122.928 35.8958 122.928C37.4678 122.928 39.1598 123.936 39.1598 125.808C39.1598 127.152 38.4998 128.016 37.2158 128.64C36.5438 128.976 36.3398 129.18 36.3278 129.612L36.3158 130.104H34.5638L34.5518 129.408C34.5398 128.376 34.7918 127.884 36.0758 127.284C36.8918 126.888 37.2758 126.504 37.2758 125.808C37.2758 125.028 36.6278 124.644 35.8958 124.644C35.0558 124.644 34.6358 125.028 34.3238 125.796ZM35.4398 133.452C34.8158 133.452 34.3118 132.948 34.3118 132.324C34.3118 131.7 34.8158 131.196 35.4398 131.196C36.0638 131.196 36.5678 131.7 36.5678 132.324C36.5678 132.948 36.0638 133.452 35.4398 133.452Z" fill="#EF6F12"/>
<rect x="78.5" y="97.5" width="55" height="37" rx="4.5" fill="white" stroke="#202020"/>
<path d="M103.16 106.32V103.24H104.44V112.58H103.16V107.49H101.13V106.32H103.16ZM99.92 103.76V105.04C99.92 105.8 99.83 106.52 99.66 107.21L102.28 110.43L101.33 111.24L99.17 108.6C98.73 109.56 98.08 110.46 97.22 111.33L96.32 110.49C97.97 108.81 98.67 107.15 98.67 105.04V103.76H99.92ZM111.062 106.32H109.382C107.872 106.32 106.802 105.88 106.802 104.79C106.802 103.71 107.872 103.27 109.382 103.27H111.062C112.572 103.27 113.652 103.71 113.652 104.79C113.652 105.88 112.572 106.32 111.062 106.32ZM110.812 104.27H109.642C108.632 104.27 108.072 104.42 108.072 104.8C108.072 105.18 108.632 105.34 109.642 105.34H110.812C111.812 105.34 112.372 105.17 112.372 104.8C112.372 104.42 111.812 104.27 110.812 104.27ZM114.622 106.86V107.87H110.862V108.54H113.602V111.05H108.122V111.61H113.852V112.63H106.852V110.07H112.322V109.54H106.802V108.54H109.582V107.87H105.822V106.86H114.622Z" fill="#222222"/>
<path d="M96.98 119.796L95.24 119.232C95.696 117.876 96.86 116.928 98.552 116.928C100.124 116.928 101.816 117.936 101.816 119.808C101.816 121.152 101.156 122.016 99.872 122.64C99.2 122.976 98.996 123.18 98.984 123.612L98.972 124.104H97.22L97.208 123.408C97.196 122.376 97.448 121.884 98.732 121.284C99.548 120.888 99.932 120.504 99.932 119.808C99.932 119.028 99.284 118.644 98.552 118.644C97.712 118.644 97.292 119.028 96.98 119.796ZM98.096 127.452C97.472 127.452 96.968 126.948 96.968 126.324C96.968 125.7 97.472 125.196 98.096 125.196C98.72 125.196 99.224 125.7 99.224 126.324C99.224 126.948 98.72 127.452 98.096 127.452ZM104.152 119.796L102.412 119.232C102.868 117.876 104.032 116.928 105.724 116.928C107.296 116.928 108.988 117.936 108.988 119.808C108.988 121.152 108.328 122.016 107.044 122.64C106.372 122.976 106.168 123.18 106.156 123.612L106.144 124.104H104.392L104.38 123.408C104.368 122.376 104.62 121.884 105.904 121.284C106.72 120.888 107.104 120.504 107.104 119.808C107.104 119.028 106.456 118.644 105.724 118.644C104.884 118.644 104.464 119.028 104.152 119.796ZM105.268 127.452C104.644 127.452 104.14 126.948 104.14 126.324C104.14 125.7 104.644 125.196 105.268 125.196C105.892 125.196 106.396 125.7 106.396 126.324C106.396 126.948 105.892 127.452 105.268 127.452ZM111.324 119.796L109.584 119.232C110.04 117.876 111.204 116.928 112.896 116.928C114.468 116.928 116.16 117.936 116.16 119.808C116.16 121.152 115.5 122.016 114.216 122.64C113.544 122.976 113.34 123.18 113.328 123.612L113.316 124.104H111.564L111.552 123.408C111.54 122.376 111.792 121.884 113.076 121.284C113.892 120.888 114.276 120.504 114.276 119.808C114.276 119.028 113.628 118.644 112.896 118.644C112.056 118.644 111.636 119.028 111.324 119.796ZM112.44 127.452C111.816 127.452 111.312 126.948 111.312 126.324C111.312 125.7 111.816 125.196 112.44 125.196C113.064 125.196 113.568 125.7 113.568 126.324C113.568 126.948 113.064 127.452 112.44 127.452Z" fill="#EF6F12"/>
<rect x="93.5" y="160.5" width="55" height="37" rx="4.5" fill="white" stroke="#202020"/>
<path d="M118.36 174.58V165.24H119.6V174.58H118.36ZM115.01 168.32H116.33V165.39H117.54V174.36H116.33V169.49H115.01V168.32ZM114.18 165.76V167.03C114.18 167.81 114.12 168.55 113.98 169.27L115.93 172.54L114.9 173.24L113.51 170.92C113.2 171.76 112.76 172.56 112.19 173.33L111.22 172.59C112.43 170.9 112.97 169.12 112.97 167.03V165.76H114.18ZM121.822 168.96L121.512 167.9C123.402 167.56 124.352 167.04 124.612 166.5H121.992V165.42H128.462V166.5H125.892C125.872 166.66 125.832 166.81 125.772 166.95L128.932 167.9L128.532 168.96L124.982 167.87C124.322 168.34 123.292 168.7 121.822 168.96ZM125.862 168.63V169.46H129.622V170.54H120.822V169.46H124.582V168.63H125.862ZM124.112 171.22H126.332C127.832 171.22 128.702 171.96 128.702 172.95C128.702 173.95 127.832 174.68 126.332 174.68H124.112C122.622 174.68 121.752 173.95 121.752 172.95C121.752 171.96 122.622 171.22 124.112 171.22ZM124.352 173.58H126.102C127.032 173.58 127.422 173.33 127.422 172.94C127.422 172.55 127.032 172.32 126.102 172.32H124.352C123.422 172.32 123.022 172.55 123.022 172.94C123.022 173.33 123.422 173.58 124.352 173.58Z" fill="#222222"/>
<rect x="113.5" y="217.5" width="55" height="37" rx="4.5" fill="white" stroke="#202020"/>
<path d="M138.37 227.62V224.24H139.61V233.58H138.37V228.78H137.44V233.36H136.23V224.39H137.44V227.62H138.37ZM132.97 230.93H133.29C133.97 230.93 134.7 230.9 135.56 230.77L135.68 231.9C134.83 232.06 134.05 232.1 133.11 232.1H131.67V224.88H135.25V226.05H132.97V230.93ZM146.012 227.67V226.58H147.642V224.24H148.922V231.15H147.642V227.67H146.012ZM145.992 230L143.682 228.24C143.212 228.94 142.512 229.57 141.562 230.15L140.892 229.17C142.482 228.13 143.152 227.12 143.162 225.82H141.262V224.69H146.352V225.82H144.412C144.412 226.29 144.342 226.73 144.212 227.15L146.702 229L145.992 230ZM143.862 230.56V232.42H149.262V233.58H142.582V230.56H143.862Z" fill="#222222"/>
<path d="M131.98 239.796L130.24 239.232C130.696 237.876 131.86 236.928 133.552 236.928C135.124 236.928 136.816 237.936 136.816 239.808C136.816 241.152 136.156 242.016 134.872 242.64C134.2 242.976 133.996 243.18 133.984 243.612L133.972 244.104H132.22L132.208 243.408C132.196 242.376 132.448 241.884 133.732 241.284C134.548 240.888 134.932 240.504 134.932 239.808C134.932 239.028 134.284 238.644 133.552 238.644C132.712 238.644 132.292 239.028 131.98 239.796ZM133.096 247.452C132.472 247.452 131.968 246.948 131.968 246.324C131.968 245.7 132.472 245.196 133.096 245.196C133.72 245.196 134.224 245.7 134.224 246.324C134.224 246.948 133.72 247.452 133.096 247.452ZM139.152 239.796L137.412 239.232C137.868 237.876 139.032 236.928 140.724 236.928C142.296 236.928 143.988 237.936 143.988 239.808C143.988 241.152 143.328 242.016 142.044 242.64C141.372 242.976 141.168 243.18 141.156 243.612L141.144 244.104H139.392L139.38 243.408C139.368 242.376 139.62 241.884 140.904 241.284C141.72 240.888 142.104 240.504 142.104 239.808C142.104 239.028 141.456 238.644 140.724 238.644C139.884 238.644 139.464 239.028 139.152 239.796ZM140.268 247.452C139.644 247.452 139.14 246.948 139.14 246.324C139.14 245.7 139.644 245.196 140.268 245.196C140.892 245.196 141.396 245.7 141.396 246.324C141.396 246.948 140.892 247.452 140.268 247.452ZM146.324 239.796L144.584 239.232C145.04 237.876 146.204 236.928 147.896 236.928C149.468 236.928 151.16 237.936 151.16 239.808C151.16 241.152 150.5 242.016 149.216 242.64C148.544 242.976 148.34 243.18 148.328 243.612L148.316 244.104H146.564L146.552 243.408C146.54 242.376 146.792 241.884 148.076 241.284C148.892 240.888 149.276 240.504 149.276 239.808C149.276 239.028 148.628 238.644 147.896 238.644C147.056 238.644 146.636 239.028 146.324 239.796ZM147.44 247.452C146.816 247.452 146.312 246.948 146.312 246.324C146.312 245.7 146.816 245.196 147.44 245.196C148.064 245.196 148.568 245.7 148.568 246.324C148.568 246.948 148.064 247.452 147.44 247.452Z" fill="#EF6F12"/>
<rect x="14.5" y="184.5" width="55" height="37" rx="4.5" fill="white" stroke="#202020"/>
<path d="M33.31 194.54L32.96 193.47C35.06 193.07 35.96 192.54 36.14 191.94H33.46V190.83H36.15V190.1H37.4V190.83H40.03V191.94H37.37C37.35 192.14 37.31 192.33 37.24 192.51L40.52 193.48L40.11 194.54L36.49 193.43C35.84 193.9 34.81 194.25 33.31 194.54ZM41.14 194.85V195.91H37.38V196.61H37.88C39.37 196.61 40.22 197.23 40.22 198.14C40.22 199.06 39.37 199.68 37.88 199.68H35.61C34.12 199.68 33.27 199.06 33.27 198.14C33.27 197.23 34.12 196.61 35.61 196.61H36.1V195.91H32.34V194.85H41.14ZM38.94 198.13C38.94 197.8 38.55 197.62 37.61 197.62H35.88C34.93 197.62 34.54 197.8 34.54 198.13C34.54 198.46 34.93 198.65 35.88 198.65H37.61C38.55 198.65 38.94 198.46 38.94 198.13ZM49.4024 192.06H50.7524V193.22H49.4024V195.28H48.1224V190.24H49.4024V192.06ZM47.2624 193.58L47.4124 194.71C46.2824 194.9 45.0324 195.02 43.7624 195.02H41.9924V190.64H43.2824V193.86H43.9924C44.9524 193.86 46.0924 193.75 47.2624 193.58ZM49.4024 199.58H43.2524V195.79H49.4024V199.58ZM48.1224 196.92H44.5324V198.44H48.1224V196.92Z" fill="#222222"/>
<path d="M32.98 206.796L31.24 206.232C31.696 204.876 32.86 203.928 34.552 203.928C36.124 203.928 37.816 204.936 37.816 206.808C37.816 208.152 37.156 209.016 35.872 209.64C35.2 209.976 34.996 210.18 34.984 210.612L34.972 211.104H33.22L33.208 210.408C33.196 209.376 33.448 208.884 34.732 208.284C35.548 207.888 35.932 207.504 35.932 206.808C35.932 206.028 35.284 205.644 34.552 205.644C33.712 205.644 33.292 206.028 32.98 206.796ZM34.096 214.452C33.472 214.452 32.968 213.948 32.968 213.324C32.968 212.7 33.472 212.196 34.096 212.196C34.72 212.196 35.224 212.7 35.224 213.324C35.224 213.948 34.72 214.452 34.096 214.452ZM40.1519 206.796L38.4119 206.232C38.8679 204.876 40.0319 203.928 41.7239 203.928C43.2959 203.928 44.9879 204.936 44.9879 206.808C44.9879 208.152 44.3279 209.016 43.0439 209.64C42.3719 209.976 42.1679 210.18 42.1559 210.612L42.1439 211.104H40.3919L40.3799 210.408C40.3679 209.376 40.6199 208.884 41.9039 208.284C42.7199 207.888 43.1039 207.504 43.1039 206.808C43.1039 206.028 42.4559 205.644 41.7239 205.644C40.8839 205.644 40.4639 206.028 40.1519 206.796ZM41.2679 214.452C40.6439 214.452 40.1399 213.948 40.1399 213.324C40.1399 212.7 40.6439 212.196 41.2679 212.196C41.8919 212.196 42.3959 212.7 42.3959 213.324C42.3959 213.948 41.8919 214.452 41.2679 214.452ZM47.3238 206.796L45.5838 206.232C46.0398 204.876 47.2038 203.928 48.8958 203.928C50.4678 203.928 52.1598 204.936 52.1598 206.808C52.1598 208.152 51.4998 209.016 50.2158 209.64C49.5438 209.976 49.3398 210.18 49.3278 210.612L49.3158 211.104H47.5638L47.5518 210.408C47.5398 209.376 47.7918 208.884 49.0758 208.284C49.8918 207.888 50.2758 207.504 50.2758 206.808C50.2758 206.028 49.6278 205.644 48.8958 205.644C48.0558 205.644 47.6358 206.028 47.3238 206.796ZM48.4398 214.452C47.8158 214.452 47.3118 213.948 47.3118 213.324C47.3118 212.7 47.8158 212.196 48.4398 212.196C49.0638 212.196 49.5678 212.7 49.5678 213.324C49.5678 213.948 49.0638 214.452 48.4398 214.452Z" fill="#EF6F12"/>
<rect x="37.5" y="251.5" width="55" height="37" rx="4.5" fill="white" stroke="#202020"/>
<path d="M60.53 259.67V258.58H62.16V256.24H63.44V263.15H62.16V259.67H60.53ZM60.51 262L58.2 260.24C57.73 260.94 57.03 261.57 56.08 262.15L55.41 261.17C57 260.13 57.67 259.12 57.68 257.82H55.78V256.69H60.87V257.82H58.93C58.93 258.29 58.86 258.73 58.73 259.15L61.22 261L60.51 262ZM58.38 262.56V264.42H63.78V265.58H57.1V262.56H58.38ZM71.2224 256.37H72.5124V260.08H65.9424V256.37H67.2224V257.27H71.2224V256.37ZM67.2224 258.3V259.05H71.2224V258.3H67.2224ZM73.6224 260.79V261.88H69.8624V262.71H72.6024V265.68H71.3224V263.83H65.8524V262.71H68.5924V261.88H64.8224V260.79H73.6224Z" fill="#222222"/>
<path d="M55.98 273.796L54.24 273.232C54.696 271.876 55.86 270.928 57.552 270.928C59.124 270.928 60.816 271.936 60.816 273.808C60.816 275.152 60.156 276.016 58.872 276.64C58.2 276.976 57.996 277.18 57.984 277.612L57.972 278.104H56.22L56.208 277.408C56.196 276.376 56.448 275.884 57.732 275.284C58.548 274.888 58.932 274.504 58.932 273.808C58.932 273.028 58.284 272.644 57.552 272.644C56.712 272.644 56.292 273.028 55.98 273.796ZM57.096 281.452C56.472 281.452 55.968 280.948 55.968 280.324C55.968 279.7 56.472 279.196 57.096 279.196C57.72 279.196 58.224 279.7 58.224 280.324C58.224 280.948 57.72 281.452 57.096 281.452ZM63.1519 273.796L61.4119 273.232C61.8679 271.876 63.0319 270.928 64.7239 270.928C66.2959 270.928 67.9879 271.936 67.9879 273.808C67.9879 275.152 67.3279 276.016 66.0439 276.64C65.3719 276.976 65.1679 277.18 65.1559 277.612L65.1439 278.104H63.3919L63.3799 277.408C63.3679 276.376 63.6199 275.884 64.9039 275.284C65.7199 274.888 66.1039 274.504 66.1039 273.808C66.1039 273.028 65.4559 272.644 64.7239 272.644C63.8839 272.644 63.4639 273.028 63.1519 273.796ZM64.2679 281.452C63.6439 281.452 63.1399 280.948 63.1399 280.324C63.1399 279.7 63.6439 279.196 64.2679 279.196C64.8919 279.196 65.3959 279.7 65.3959 280.324C65.3959 280.948 64.8919 281.452 64.2679 281.452ZM70.3238 273.796L68.5838 273.232C69.0398 271.876 70.2038 270.928 71.8958 270.928C73.4678 270.928 75.1598 271.936 75.1598 273.808C75.1598 275.152 74.4998 276.016 73.2158 276.64C72.5438 276.976 72.3398 277.18 72.3278 277.612L72.3158 278.104H70.5638L70.5518 277.408C70.5398 276.376 70.7918 275.884 72.0758 275.284C72.8918 274.888 73.2758 274.504 73.2758 273.808C73.2758 273.028 72.6278 272.644 71.8958 272.644C71.0558 272.644 70.6358 273.028 70.3238 273.796ZM71.4398 281.452C70.8158 281.452 70.3118 280.948 70.3118 280.324C70.3118 279.7 70.8158 279.196 71.4398 279.196C72.0638 279.196 72.5678 279.7 72.5678 280.324C72.5678 280.948 72.0638 281.452 71.4398 281.452Z" fill="#EF6F12"/>
<rect x="169.5" y="132.5" width="55" height="37" rx="4.5" fill="white" stroke="#202020"/>
<path d="M188.31 141.54L187.96 140.47C190.06 140.07 190.96 139.54 191.14 138.94H188.46V137.83H191.15V137.1H192.4V137.83H195.03V138.94H192.37C192.35 139.14 192.31 139.33 192.24 139.51L195.52 140.48L195.11 141.54L191.49 140.43C190.84 140.9 189.81 141.25 188.31 141.54ZM196.14 141.85V142.91H192.38V143.61H192.88C194.37 143.61 195.22 144.23 195.22 145.14C195.22 146.06 194.37 146.68 192.88 146.68H190.61C189.12 146.68 188.27 146.06 188.27 145.14C188.27 144.23 189.12 143.61 190.61 143.61H191.1V142.91H187.34V141.85H196.14ZM193.94 145.13C193.94 144.8 193.55 144.62 192.61 144.62H190.88C189.93 144.62 189.54 144.8 189.54 145.13C189.54 145.46 189.93 145.65 190.88 145.65H192.61C193.55 145.65 193.94 145.46 193.94 145.13ZM203.222 137.37H204.512V141.08H197.942V137.37H199.222V138.27H203.222V137.37ZM199.222 139.3V140.05H203.222V139.3H199.222ZM205.622 141.79V142.88H201.862V143.71H204.602V146.68H203.322V144.83H197.852V143.71H200.592V142.88H196.822V141.79H205.622Z" fill="#222222"/>
<path d="M187.98 154.796L186.24 154.232C186.696 152.876 187.86 151.928 189.552 151.928C191.124 151.928 192.816 152.936 192.816 154.808C192.816 156.152 192.156 157.016 190.872 157.64C190.2 157.976 189.996 158.18 189.984 158.612L189.972 159.104H188.22L188.208 158.408C188.196 157.376 188.448 156.884 189.732 156.284C190.548 155.888 190.932 155.504 190.932 154.808C190.932 154.028 190.284 153.644 189.552 153.644C188.712 153.644 188.292 154.028 187.98 154.796ZM189.096 162.452C188.472 162.452 187.968 161.948 187.968 161.324C187.968 160.7 188.472 160.196 189.096 160.196C189.72 160.196 190.224 160.7 190.224 161.324C190.224 161.948 189.72 162.452 189.096 162.452ZM195.152 154.796L193.412 154.232C193.868 152.876 195.032 151.928 196.724 151.928C198.296 151.928 199.988 152.936 199.988 154.808C199.988 156.152 199.328 157.016 198.044 157.64C197.372 157.976 197.168 158.18 197.156 158.612L197.144 159.104H195.392L195.38 158.408C195.368 157.376 195.62 156.884 196.904 156.284C197.72 155.888 198.104 155.504 198.104 154.808C198.104 154.028 197.456 153.644 196.724 153.644C195.884 153.644 195.464 154.028 195.152 154.796ZM196.268 162.452C195.644 162.452 195.14 161.948 195.14 161.324C195.14 160.7 195.644 160.196 196.268 160.196C196.892 160.196 197.396 160.7 197.396 161.324C197.396 161.948 196.892 162.452 196.268 162.452ZM202.324 154.796L200.584 154.232C201.04 152.876 202.204 151.928 203.896 151.928C205.468 151.928 207.16 152.936 207.16 154.808C207.16 156.152 206.5 157.016 205.216 157.64C204.544 157.976 204.34 158.18 204.328 158.612L204.316 159.104H202.564L202.552 158.408C202.54 157.376 202.792 156.884 204.076 156.284C204.892 155.888 205.276 155.504 205.276 154.808C205.276 154.028 204.628 153.644 203.896 153.644C203.056 153.644 202.636 154.028 202.324 154.796ZM203.44 162.452C202.816 162.452 202.312 161.948 202.312 161.324C202.312 160.7 202.816 160.196 203.44 160.196C204.064 160.196 204.568 160.7 204.568 161.324C204.568 161.948 204.064 162.452 203.44 162.452Z" fill="#EF6F12"/>
<rect x="217.5" y="192.5" width="55" height="37" rx="4.5" fill="white" stroke="#202020"/>
<path d="M242.16 200.57H240.27C239.73 201.95 238.28 202.86 236.19 203.47L235.69 202.33C237.84 201.72 239 200.8 239.18 199.85H235.96V198.69H240.5V199.26C240.5 199.36 240.5 199.46 240.49 199.55H242.16V198.25H243.44V203.33H242.16V202.42H240.28V201.4H242.16V200.57ZM239.16 203.74H241.29C242.63 203.74 243.55 204.53 243.55 205.71C243.55 206.9 242.63 207.68 241.29 207.68H239.16C237.83 207.68 236.91 206.9 236.91 205.71C236.91 204.53 237.83 203.74 239.16 203.74ZM239.35 206.54H241.1C241.88 206.54 242.27 206.2 242.27 205.7C242.27 205.21 241.88 204.87 241.1 204.87H239.35C238.58 204.87 238.18 205.21 238.18 205.7C238.18 206.2 238.58 206.54 239.35 206.54ZM251.222 198.37H252.512V202.08H245.942V198.37H247.222V199.27H251.222V198.37ZM247.222 200.3V201.05H251.222V200.3H247.222ZM253.622 202.79V203.88H249.862V204.71H252.602V207.68H251.322V205.83H245.852V204.71H248.592V203.88H244.822V202.79H253.622Z" fill="#222222"/>
<path d="M235.98 214.796L234.24 214.232C234.696 212.876 235.86 211.928 237.552 211.928C239.124 211.928 240.816 212.936 240.816 214.808C240.816 216.152 240.156 217.016 238.872 217.64C238.2 217.976 237.996 218.18 237.984 218.612L237.972 219.104H236.22L236.208 218.408C236.196 217.376 236.448 216.884 237.732 216.284C238.548 215.888 238.932 215.504 238.932 214.808C238.932 214.028 238.284 213.644 237.552 213.644C236.712 213.644 236.292 214.028 235.98 214.796ZM237.096 222.452C236.472 222.452 235.968 221.948 235.968 221.324C235.968 220.7 236.472 220.196 237.096 220.196C237.72 220.196 238.224 220.7 238.224 221.324C238.224 221.948 237.72 222.452 237.096 222.452ZM243.152 214.796L241.412 214.232C241.868 212.876 243.032 211.928 244.724 211.928C246.296 211.928 247.988 212.936 247.988 214.808C247.988 216.152 247.328 217.016 246.044 217.64C245.372 217.976 245.168 218.18 245.156 218.612L245.144 219.104H243.392L243.38 218.408C243.368 217.376 243.62 216.884 244.904 216.284C245.72 215.888 246.104 215.504 246.104 214.808C246.104 214.028 245.456 213.644 244.724 213.644C243.884 213.644 243.464 214.028 243.152 214.796ZM244.268 222.452C243.644 222.452 243.14 221.948 243.14 221.324C243.14 220.7 243.644 220.196 244.268 220.196C244.892 220.196 245.396 220.7 245.396 221.324C245.396 221.948 244.892 222.452 244.268 222.452ZM250.324 214.796L248.584 214.232C249.04 212.876 250.204 211.928 251.896 211.928C253.468 211.928 255.16 212.936 255.16 214.808C255.16 216.152 254.5 217.016 253.216 217.64C252.544 217.976 252.34 218.18 252.328 218.612L252.316 219.104H250.564L250.552 218.408C250.54 217.376 250.792 216.884 252.076 216.284C252.892 215.888 253.276 215.504 253.276 214.808C253.276 214.028 252.628 213.644 251.896 213.644C251.056 213.644 250.636 214.028 250.324 214.796ZM251.44 222.452C250.816 222.452 250.312 221.948 250.312 221.324C250.312 220.7 250.816 220.196 251.44 220.196C252.064 220.196 252.568 220.7 252.568 221.324C252.568 221.948 252.064 222.452 251.44 222.452Z" fill="#EF6F12"/>
<rect x="247.5" y="267.5" width="55" height="37" rx="4.5" fill="white" stroke="#202020"/>
<path d="M270.58 276.32H268.9C267.39 276.32 266.32 275.88 266.32 274.79C266.32 273.71 267.39 273.27 268.9 273.27H270.58C272.09 273.27 273.17 273.71 273.17 274.79C273.17 275.88 272.09 276.32 270.58 276.32ZM270.33 274.27H269.16C268.15 274.27 267.59 274.42 267.59 274.8C267.59 275.18 268.15 275.34 269.16 275.34H270.33C271.33 275.34 271.89 275.17 271.89 274.8C271.89 274.42 271.33 274.27 270.33 274.27ZM274.14 276.86V277.87H270.38V278.54H273.12V281.05H267.64V281.61H273.37V282.63H266.37V280.07H271.84V279.54H266.32V278.54H269.1V277.87H265.34V276.86H274.14ZM282.392 273.24V275.45H283.742V276.61H282.392V280.15H281.112V273.24H282.392ZM279.642 278.71L277.382 276.95C276.922 277.66 276.252 278.3 275.352 278.9L274.622 277.92C276.272 276.82 276.892 275.65 276.892 274.3V273.57H278.142V274.3C278.142 274.85 278.062 275.36 277.912 275.84L280.372 277.76L279.642 278.71ZM276.252 279.56H277.522V281.42H282.832V282.58H276.252V279.56Z" fill="#222222"/>
<path d="M265.98 289.796L264.24 289.232C264.696 287.876 265.86 286.928 267.552 286.928C269.124 286.928 270.816 287.936 270.816 289.808C270.816 291.152 270.156 292.016 268.872 292.64C268.2 292.976 267.996 293.18 267.984 293.612L267.972 294.104H266.22L266.208 293.408C266.196 292.376 266.448 291.884 267.732 291.284C268.548 290.888 268.932 290.504 268.932 289.808C268.932 289.028 268.284 288.644 267.552 288.644C266.712 288.644 266.292 289.028 265.98 289.796ZM267.096 297.452C266.472 297.452 265.968 296.948 265.968 296.324C265.968 295.7 266.472 295.196 267.096 295.196C267.72 295.196 268.224 295.7 268.224 296.324C268.224 296.948 267.72 297.452 267.096 297.452ZM273.152 289.796L271.412 289.232C271.868 287.876 273.032 286.928 274.724 286.928C276.296 286.928 277.988 287.936 277.988 289.808C277.988 291.152 277.328 292.016 276.044 292.64C275.372 292.976 275.168 293.18 275.156 293.612L275.144 294.104H273.392L273.38 293.408C273.368 292.376 273.62 291.884 274.904 291.284C275.72 290.888 276.104 290.504 276.104 289.808C276.104 289.028 275.456 288.644 274.724 288.644C273.884 288.644 273.464 289.028 273.152 289.796ZM274.268 297.452C273.644 297.452 273.14 296.948 273.14 296.324C273.14 295.7 273.644 295.196 274.268 295.196C274.892 295.196 275.396 295.7 275.396 296.324C275.396 296.948 274.892 297.452 274.268 297.452ZM280.324 289.796L278.584 289.232C279.04 287.876 280.204 286.928 281.896 286.928C283.468 286.928 285.16 287.936 285.16 289.808C285.16 291.152 284.5 292.016 283.216 292.64C282.544 292.976 282.34 293.18 282.328 293.612L282.316 294.104H280.564L280.552 293.408C280.54 292.376 280.792 291.884 282.076 291.284C282.892 290.888 283.276 290.504 283.276 289.808C283.276 289.028 282.628 288.644 281.896 288.644C281.056 288.644 280.636 289.028 280.324 289.796ZM281.44 297.452C280.816 297.452 280.312 296.948 280.312 296.324C280.312 295.7 280.816 295.196 281.44 295.196C282.064 295.196 282.568 295.7 282.568 296.324C282.568 296.948 282.064 297.452 281.44 297.452Z" fill="#EF6F12"/>
<rect x="247.5" y="343.5" width="55" height="37" rx="4.5" fill="white" stroke="#202020"/>
<path d="M271.84 349.59H273.12V353.97H266.37V349.59H267.64V350.74H271.84V349.59ZM267.64 351.85V352.87H271.84V351.85H267.64ZM265.34 355.04H274.14V356.2H270.38V358.69H269.1V356.2H265.34V355.04ZM282.392 349.24V351.45H283.742V352.61H282.392V356.15H281.112V349.24H282.392ZM279.642 354.71L277.382 352.95C276.922 353.66 276.252 354.3 275.352 354.9L274.622 353.92C276.272 352.82 276.892 351.65 276.892 350.3V349.57H278.142V350.3C278.142 350.85 278.062 351.36 277.912 351.84L280.372 353.76L279.642 354.71ZM276.252 355.56H277.522V357.42H282.832V358.58H276.252V355.56Z" fill="#222222"/>
<path d="M265.98 365.796L264.24 365.232C264.696 363.876 265.86 362.928 267.552 362.928C269.124 362.928 270.816 363.936 270.816 365.808C270.816 367.152 270.156 368.016 268.872 368.64C268.2 368.976 267.996 369.18 267.984 369.612L267.972 370.104H266.22L266.208 369.408C266.196 368.376 266.448 367.884 267.732 367.284C268.548 366.888 268.932 366.504 268.932 365.808C268.932 365.028 268.284 364.644 267.552 364.644C266.712 364.644 266.292 365.028 265.98 365.796ZM267.096 373.452C266.472 373.452 265.968 372.948 265.968 372.324C265.968 371.7 266.472 371.196 267.096 371.196C267.72 371.196 268.224 371.7 268.224 372.324C268.224 372.948 267.72 373.452 267.096 373.452ZM273.152 365.796L271.412 365.232C271.868 363.876 273.032 362.928 274.724 362.928C276.296 362.928 277.988 363.936 277.988 365.808C277.988 367.152 277.328 368.016 276.044 368.64C275.372 368.976 275.168 369.18 275.156 369.612L275.144 370.104H273.392L273.38 369.408C273.368 368.376 273.62 367.884 274.904 367.284C275.72 366.888 276.104 366.504 276.104 365.808C276.104 365.028 275.456 364.644 274.724 364.644C273.884 364.644 273.464 365.028 273.152 365.796ZM274.268 373.452C273.644 373.452 273.14 372.948 273.14 372.324C273.14 371.7 273.644 371.196 274.268 371.196C274.892 371.196 275.396 371.7 275.396 372.324C275.396 372.948 274.892 373.452 274.268 373.452ZM280.324 365.796L278.584 365.232C279.04 363.876 280.204 362.928 281.896 362.928C283.468 362.928 285.16 363.936 285.16 365.808C285.16 367.152 284.5 368.016 283.216 368.64C282.544 368.976 282.34 369.18 282.328 369.612L282.316 370.104H280.564L280.552 369.408C280.54 368.376 280.792 367.884 282.076 367.284C282.892 366.888 283.276 366.504 283.276 365.808C283.276 365.028 282.628 364.644 281.896 364.644C281.056 364.644 280.636 365.028 280.324 365.796ZM281.44 373.452C280.816 373.452 280.312 372.948 280.312 372.324C280.312 371.7 280.816 371.196 281.44 371.196C282.064 371.196 282.568 371.7 282.568 372.324C282.568 372.948 282.064 373.452 281.44 373.452Z" fill="#EF6F12"/>
<rect x="169.5" y="326.5" width="55" height="37" rx="4.5" fill="white" stroke="#202020"/>
<path d="M194.16 334.57H192.27C191.73 335.95 190.28 336.86 188.19 337.47L187.69 336.33C189.84 335.72 191 334.8 191.18 333.85H187.96V332.69H192.5V333.26C192.5 333.36 192.5 333.46 192.49 333.55H194.16V332.25H195.44V337.33H194.16V336.42H192.28V335.4H194.16V334.57ZM191.16 337.74H193.29C194.63 337.74 195.55 338.53 195.55 339.71C195.55 340.9 194.63 341.68 193.29 341.68H191.16C189.83 341.68 188.91 340.9 188.91 339.71C188.91 338.53 189.83 337.74 191.16 337.74ZM191.35 340.54H193.1C193.88 340.54 194.27 340.2 194.27 339.7C194.27 339.21 193.88 338.87 193.1 338.87H191.35C190.58 338.87 190.18 339.21 190.18 339.7C190.18 340.2 190.58 340.54 191.35 340.54ZM204.402 334.06H205.752V335.22H204.402V337.28H203.122V332.24H204.402V334.06ZM202.262 335.58L202.412 336.71C201.282 336.9 200.032 337.02 198.762 337.02H196.992V332.64H198.282V335.86H198.992C199.952 335.86 201.092 335.75 202.262 335.58ZM204.402 341.58H198.252V337.79H204.402V341.58ZM203.122 338.92H199.532V340.44H203.122V338.92Z" fill="#222222"/>
<rect x="169.5" y="258.5" width="55" height="37" rx="4.5" fill="white" stroke="#202020"/>
<path d="M194.37 267.62V264.24H195.61V273.58H194.37V268.78H193.44V273.36H192.23V264.39H193.44V267.62H194.37ZM188.97 270.93H189.29C189.97 270.93 190.7 270.9 191.56 270.77L191.68 271.9C190.83 272.06 190.05 272.1 189.11 272.1H187.67V264.88H191.25V266.05H188.97V270.93ZM204.222 269.07H205.622V270.23H201.862V273.69H200.582V270.23H196.822V269.07H202.942C203.122 267.87 203.242 266.6 203.242 265.88H197.772V264.71H204.522V265.48C204.522 266.54 204.412 267.83 204.222 269.07Z" fill="#222222"/>
<path d="M187.98 280.796L186.24 280.232C186.696 278.876 187.86 277.928 189.552 277.928C191.124 277.928 192.816 278.936 192.816 280.808C192.816 282.152 192.156 283.016 190.872 283.64C190.2 283.976 189.996 284.18 189.984 284.612L189.972 285.104H188.22L188.208 284.408C188.196 283.376 188.448 282.884 189.732 282.284C190.548 281.888 190.932 281.504 190.932 280.808C190.932 280.028 190.284 279.644 189.552 279.644C188.712 279.644 188.292 280.028 187.98 280.796ZM189.096 288.452C188.472 288.452 187.968 287.948 187.968 287.324C187.968 286.7 188.472 286.196 189.096 286.196C189.72 286.196 190.224 286.7 190.224 287.324C190.224 287.948 189.72 288.452 189.096 288.452ZM195.152 280.796L193.412 280.232C193.868 278.876 195.032 277.928 196.724 277.928C198.296 277.928 199.988 278.936 199.988 280.808C199.988 282.152 199.328 283.016 198.044 283.64C197.372 283.976 197.168 284.18 197.156 284.612L197.144 285.104H195.392L195.38 284.408C195.368 283.376 195.62 282.884 196.904 282.284C197.72 281.888 198.104 281.504 198.104 280.808C198.104 280.028 197.456 279.644 196.724 279.644C195.884 279.644 195.464 280.028 195.152 280.796ZM196.268 288.452C195.644 288.452 195.14 287.948 195.14 287.324C195.14 286.7 195.644 286.196 196.268 286.196C196.892 286.196 197.396 286.7 197.396 287.324C197.396 287.948 196.892 288.452 196.268 288.452ZM202.324 280.796L200.584 280.232C201.04 278.876 202.204 277.928 203.896 277.928C205.468 277.928 207.16 278.936 207.16 280.808C207.16 282.152 206.5 283.016 205.216 283.64C204.544 283.976 204.34 284.18 204.328 284.612L204.316 285.104H202.564L202.552 284.408C202.54 283.376 202.792 282.884 204.076 282.284C204.892 281.888 205.276 281.504 205.276 280.808C205.276 280.028 204.628 279.644 203.896 279.644C203.056 279.644 202.636 280.028 202.324 280.796ZM203.44 288.452C202.816 288.452 202.312 287.948 202.312 287.324C202.312 286.7 202.816 286.196 203.44 286.196C204.064 286.196 204.568 286.7 204.568 287.324C204.568 287.948 204.064 288.452 203.44 288.452Z" fill="#EF6F12"/>
<path d="M187.98 348.796L186.24 348.232C186.696 346.876 187.86 345.928 189.552 345.928C191.124 345.928 192.816 346.936 192.816 348.808C192.816 350.152 192.156 351.016 190.872 351.64C190.2 351.976 189.996 352.18 189.984 352.612L189.972 353.104H188.22L188.208 352.408C188.196 351.376 188.448 350.884 189.732 350.284C190.548 349.888 190.932 349.504 190.932 348.808C190.932 348.028 190.284 347.644 189.552 347.644C188.712 347.644 188.292 348.028 187.98 348.796ZM189.096 356.452C188.472 356.452 187.968 355.948 187.968 355.324C187.968 354.7 188.472 354.196 189.096 354.196C189.72 354.196 190.224 354.7 190.224 355.324C190.224 355.948 189.72 356.452 189.096 356.452ZM195.152 348.796L193.412 348.232C193.868 346.876 195.032 345.928 196.724 345.928C198.296 345.928 199.988 346.936 199.988 348.808C199.988 350.152 199.328 351.016 198.044 351.64C197.372 351.976 197.168 352.18 197.156 352.612L197.144 353.104H195.392L195.38 352.408C195.368 351.376 195.62 350.884 196.904 350.284C197.72 349.888 198.104 349.504 198.104 348.808C198.104 348.028 197.456 347.644 196.724 347.644C195.884 347.644 195.464 348.028 195.152 348.796ZM196.268 356.452C195.644 356.452 195.14 355.948 195.14 355.324C195.14 354.7 195.644 354.196 196.268 354.196C196.892 354.196 197.396 354.7 197.396 355.324C197.396 355.948 196.892 356.452 196.268 356.452ZM202.324 348.796L200.584 348.232C201.04 346.876 202.204 345.928 203.896 345.928C205.468 345.928 207.16 346.936 207.16 348.808C207.16 350.152 206.5 351.016 205.216 351.64C204.544 351.976 204.34 352.18 204.328 352.612L204.316 353.104H202.564L202.552 352.408C202.54 351.376 202.792 350.884 204.076 350.284C204.892 349.888 205.276 349.504 205.276 348.808C205.276 348.028 204.628 347.644 203.896 347.644C203.056 347.644 202.636 348.028 202.324 348.796ZM203.44 356.452C202.816 356.452 202.312 355.948 202.312 355.324C202.312 354.7 202.816 354.196 203.44 354.196C204.064 354.196 204.568 354.7 204.568 355.324C204.568 355.948 204.064 356.452 203.44 356.452Z" fill="#EF6F12"/>
<rect x="55.5" y="447.5" width="55" height="37" rx="4.5" fill="white" stroke="#202020"/>
<path d="M80.36 463.58V454.24H81.6V463.58H80.36ZM77.01 457.52H78.33V454.39H79.54V463.36H78.33V458.68H77.01V457.52ZM76.14 456.1V456.48C76.14 457.11 76.08 457.73 75.97 458.33L77.94 461.55L76.95 462.23L75.51 459.93C75.19 460.76 74.75 461.56 74.18 462.33L73.21 461.59C74.41 459.98 74.98 458.4 74.98 456.48V456.1H73.55V454.93H77.64V456.1H76.14ZM83.8724 459.19L83.4224 458.09C85.5924 457.37 86.5524 456.57 86.6424 455.75H83.9424V454.63H90.5124V455.75H87.9324C87.9124 456.05 87.8524 456.33 87.7324 456.6L91.0224 458.1L90.4824 459.19L87.0124 457.6C86.3624 458.22 85.3324 458.75 83.8724 459.19ZM82.8224 459.94H91.6224V461.1H87.8624V463.69H86.5824V461.1H82.8224V459.94Z" fill="#222222"/>
<path d="M71.98 469.796L70.24 469.232C70.696 467.876 71.86 466.928 73.552 466.928C75.124 466.928 76.816 467.936 76.816 469.808C76.816 471.152 76.156 472.016 74.872 472.64C74.2 472.976 73.996 473.18 73.984 473.612L73.972 474.104H72.22L72.208 473.408C72.196 472.376 72.448 471.884 73.732 471.284C74.548 470.888 74.932 470.504 74.932 469.808C74.932 469.028 74.284 468.644 73.552 468.644C72.712 468.644 72.292 469.028 71.98 469.796ZM73.096 477.452C72.472 477.452 71.968 476.948 71.968 476.324C71.968 475.7 72.472 475.196 73.096 475.196C73.72 475.196 74.224 475.7 74.224 476.324C74.224 476.948 73.72 477.452 73.096 477.452ZM79.1519 469.796L77.4119 469.232C77.8679 467.876 79.0319 466.928 80.7239 466.928C82.2959 466.928 83.9879 467.936 83.9879 469.808C83.9879 471.152 83.3279 472.016 82.0439 472.64C81.3719 472.976 81.1679 473.18 81.1559 473.612L81.1439 474.104H79.3919L79.3799 473.408C79.3679 472.376 79.6199 471.884 80.9039 471.284C81.7199 470.888 82.1039 470.504 82.1039 469.808C82.1039 469.028 81.4559 468.644 80.7239 468.644C79.8839 468.644 79.4639 469.028 79.1519 469.796ZM80.2679 477.452C79.6439 477.452 79.1399 476.948 79.1399 476.324C79.1399 475.7 79.6439 475.196 80.2679 475.196C80.8919 475.196 81.3959 475.7 81.3959 476.324C81.3959 476.948 80.8919 477.452 80.2679 477.452ZM86.3238 469.796L84.5838 469.232C85.0398 467.876 86.2038 466.928 87.8958 466.928C89.4678 466.928 91.1598 467.936 91.1598 469.808C91.1598 471.152 90.4998 472.016 89.2158 472.64C88.5438 472.976 88.3398 473.18 88.3278 473.612L88.3158 474.104H86.5638L86.5518 473.408C86.5398 472.376 86.7918 471.884 88.0758 471.284C88.8918 470.888 89.2758 470.504 89.2758 469.808C89.2758 469.028 88.6278 468.644 87.8958 468.644C87.0558 468.644 86.6358 469.028 86.3238 469.796ZM87.4398 477.452C86.8158 477.452 86.3118 476.948 86.3118 476.324C86.3118 475.7 86.8158 475.196 87.4398 475.196C88.0638 475.196 88.5678 475.7 88.5678 476.324C88.5678 476.948 88.0638 477.452 87.4398 477.452Z" fill="#EF6F12"/>
<rect x="1.5" y="381.5" width="55" height="37" rx="4.5" fill="white" stroke="#202020"/>
<path d="M24.53 390.67V389.58H26.16V387.24H27.44V394.15H26.16V390.67H24.53ZM24.51 393L22.2 391.24C21.73 391.94 21.03 392.57 20.08 393.15L19.41 392.17C21 391.13 21.67 390.12 21.68 388.82H19.78V387.69H24.87V388.82H22.93C22.93 389.29 22.86 389.73 22.73 390.15L25.22 392L24.51 393ZM22.38 393.56V395.42H27.78V396.58H21.1V393.56H22.38ZM36.4024 389.06H37.7524V390.22H36.4024V392.28H35.1224V387.24H36.4024V389.06ZM34.2624 390.58L34.4124 391.71C33.2824 391.9 32.0324 392.02 30.7624 392.02H28.9924V387.64H30.2824V390.86H30.9924C31.9524 390.86 33.0924 390.75 34.2624 390.58ZM36.4024 396.58H30.2524V392.79H36.4024V396.58ZM35.1224 393.92H31.5324V395.44H35.1224V393.92Z" fill="#222222"/>
<path d="M19.98 403.796L18.24 403.232C18.696 401.876 19.86 400.928 21.552 400.928C23.124 400.928 24.816 401.936 24.816 403.808C24.816 405.152 24.156 406.016 22.872 406.64C22.2 406.976 21.996 407.18 21.984 407.612L21.972 408.104H20.22L20.208 407.408C20.196 406.376 20.448 405.884 21.732 405.284C22.548 404.888 22.932 404.504 22.932 403.808C22.932 403.028 22.284 402.644 21.552 402.644C20.712 402.644 20.292 403.028 19.98 403.796ZM21.096 411.452C20.472 411.452 19.968 410.948 19.968 410.324C19.968 409.7 20.472 409.196 21.096 409.196C21.72 409.196 22.224 409.7 22.224 410.324C22.224 410.948 21.72 411.452 21.096 411.452ZM27.1519 403.796L25.4119 403.232C25.8679 401.876 27.0319 400.928 28.7239 400.928C30.2959 400.928 31.9879 401.936 31.9879 403.808C31.9879 405.152 31.3279 406.016 30.0439 406.64C29.3719 406.976 29.1679 407.18 29.1559 407.612L29.1439 408.104H27.3919L27.3799 407.408C27.3679 406.376 27.6199 405.884 28.9039 405.284C29.7199 404.888 30.1039 404.504 30.1039 403.808C30.1039 403.028 29.4559 402.644 28.7239 402.644C27.8839 402.644 27.4639 403.028 27.1519 403.796ZM28.2679 411.452C27.6439 411.452 27.1399 410.948 27.1399 410.324C27.1399 409.7 27.6439 409.196 28.2679 409.196C28.8919 409.196 29.3959 409.7 29.3959 410.324C29.3959 410.948 28.8919 411.452 28.2679 411.452ZM34.3238 403.796L32.5838 403.232C33.0398 401.876 34.2038 400.928 35.8958 400.928C37.4678 400.928 39.1598 401.936 39.1598 403.808C39.1598 405.152 38.4998 406.016 37.2158 406.64C36.5438 406.976 36.3398 407.18 36.3278 407.612L36.3158 408.104H34.5638L34.5518 407.408C34.5398 406.376 34.7918 405.884 36.0758 405.284C36.8918 404.888 37.2758 404.504 37.2758 403.808C37.2758 403.028 36.6278 402.644 35.8958 402.644C35.0558 402.644 34.6358 403.028 34.3238 403.796ZM35.4398 411.452C34.8158 411.452 34.3118 410.948 34.3118 410.324C34.3118 409.7 34.8158 409.196 35.4398 409.196C36.0638 409.196 36.5678 409.7 36.5678 410.324C36.5678 410.948 36.0638 411.452 35.4398 411.452Z" fill="#EF6F12"/>
<rect x="65.5" y="326.5" width="55" height="37" rx="4.5" fill="white" stroke="#202020"/>
<path d="M91.01 332.25V334.55H92.26V335.71H91.01V337.81H89.73V332.25H91.01ZM88.32 335.93L87.1 335.79C87.23 334.98 87.31 334.23 87.32 333.68H83.75V332.63H88.57V333.05C88.57 334.07 88.47 335.07 88.32 335.93ZM89.06 336.19L89.19 337.3C87.78 337.49 86 337.6 84.68 337.6H83.26L83.19 336.47H84.8H84.88V334.71H86.16V336.43C87.08 336.39 88.13 336.31 89.06 336.19ZM86.82 338.13H88.87C90.2 338.13 91.12 338.79 91.12 339.91C91.12 341.02 90.2 341.68 88.87 341.68H86.82C85.5 341.68 84.57 341.02 84.57 339.91C84.57 338.79 85.5 338.13 86.82 338.13ZM87.03 340.59H88.67C89.44 340.59 89.84 340.32 89.84 339.9C89.84 339.48 89.44 339.2 88.67 339.2H87.03C86.25 339.2 85.85 339.48 85.85 339.9C85.85 340.32 86.25 340.59 87.03 340.59ZM93.8724 337.19L93.4224 336.09C95.5924 335.37 96.5524 334.57 96.6424 333.75H93.9424V332.63H100.512V333.75H97.9324C97.9124 334.05 97.8524 334.33 97.7324 334.6L101.022 336.1L100.482 337.19L97.0124 335.6C96.3624 336.22 95.3324 336.75 93.8724 337.19ZM92.8224 337.94H101.622V339.1H97.8624V341.69H96.5824V339.1H92.8224V337.94Z" fill="#222222"/>
<path d="M83.98 348.796L82.24 348.232C82.696 346.876 83.86 345.928 85.552 345.928C87.124 345.928 88.816 346.936 88.816 348.808C88.816 350.152 88.156 351.016 86.872 351.64C86.2 351.976 85.996 352.18 85.984 352.612L85.972 353.104H84.22L84.208 352.408C84.196 351.376 84.448 350.884 85.732 350.284C86.548 349.888 86.932 349.504 86.932 348.808C86.932 348.028 86.284 347.644 85.552 347.644C84.712 347.644 84.292 348.028 83.98 348.796ZM85.096 356.452C84.472 356.452 83.968 355.948 83.968 355.324C83.968 354.7 84.472 354.196 85.096 354.196C85.72 354.196 86.224 354.7 86.224 355.324C86.224 355.948 85.72 356.452 85.096 356.452ZM91.1519 348.796L89.4119 348.232C89.8679 346.876 91.0319 345.928 92.7239 345.928C94.2959 345.928 95.9879 346.936 95.9879 348.808C95.9879 350.152 95.3279 351.016 94.0439 351.64C93.3719 351.976 93.1679 352.18 93.1559 352.612L93.1439 353.104H91.3919L91.3799 352.408C91.3679 351.376 91.6199 350.884 92.9039 350.284C93.7199 349.888 94.1039 349.504 94.1039 348.808C94.1039 348.028 93.4559 347.644 92.7239 347.644C91.8839 347.644 91.4639 348.028 91.1519 348.796ZM92.2679 356.452C91.6439 356.452 91.1399 355.948 91.1399 355.324C91.1399 354.7 91.6439 354.196 92.2679 354.196C92.8919 354.196 93.3959 354.7 93.3959 355.324C93.3959 355.948 92.8919 356.452 92.2679 356.452ZM98.3238 348.796L96.5838 348.232C97.0398 346.876 98.2038 345.928 99.8958 345.928C101.468 345.928 103.16 346.936 103.16 348.808C103.16 350.152 102.5 351.016 101.216 351.64C100.544 351.976 100.34 352.18 100.328 352.612L100.316 353.104H98.5638L98.5518 352.408C98.5398 351.376 98.7918 350.884 100.076 350.284C100.892 349.888 101.276 349.504 101.276 348.808C101.276 348.028 100.628 347.644 99.8958 347.644C99.0558 347.644 98.6358 348.028 98.3238 348.796ZM99.4398 356.452C98.8158 356.452 98.3118 355.948 98.3118 355.324C98.3118 354.7 98.8158 354.196 99.4398 354.196C100.064 354.196 100.568 354.7 100.568 355.324C100.568 355.948 100.064 356.452 99.4398 356.452Z" fill="#EF6F12"/>
<path d="M111.98 182.796L110.24 182.232C110.696 180.876 111.86 179.928 113.552 179.928C115.124 179.928 116.816 180.936 116.816 182.808C116.816 184.152 116.156 185.016 114.872 185.64C114.2 185.976 113.996 186.18 113.984 186.612L113.972 187.104H112.22L112.208 186.408C112.196 185.376 112.448 184.884 113.732 184.284C114.548 183.888 114.932 183.504 114.932 182.808C114.932 182.028 114.284 181.644 113.552 181.644C112.712 181.644 112.292 182.028 111.98 182.796ZM113.096 190.452C112.472 190.452 111.968 189.948 111.968 189.324C111.968 188.7 112.472 188.196 113.096 188.196C113.72 188.196 114.224 188.7 114.224 189.324C114.224 189.948 113.72 190.452 113.096 190.452ZM119.152 182.796L117.412 182.232C117.868 180.876 119.032 179.928 120.724 179.928C122.296 179.928 123.988 180.936 123.988 182.808C123.988 184.152 123.328 185.016 122.044 185.64C121.372 185.976 121.168 186.18 121.156 186.612L121.144 187.104H119.392L119.38 186.408C119.368 185.376 119.62 184.884 120.904 184.284C121.72 183.888 122.104 183.504 122.104 182.808C122.104 182.028 121.456 181.644 120.724 181.644C119.884 181.644 119.464 182.028 119.152 182.796ZM120.268 190.452C119.644 190.452 119.14 189.948 119.14 189.324C119.14 188.7 119.644 188.196 120.268 188.196C120.892 188.196 121.396 188.7 121.396 189.324C121.396 189.948 120.892 190.452 120.268 190.452ZM126.324 182.796L124.584 182.232C125.04 180.876 126.204 179.928 127.896 179.928C129.468 179.928 131.16 180.936 131.16 182.808C131.16 184.152 130.5 185.016 129.216 185.64C128.544 185.976 128.34 186.18 128.328 186.612L128.316 187.104H126.564L126.552 186.408C126.54 185.376 126.792 184.884 128.076 184.284C128.892 183.888 129.276 183.504 129.276 182.808C129.276 182.028 128.628 181.644 127.896 181.644C127.056 181.644 126.636 182.028 126.324 182.796ZM127.44 190.452C126.816 190.452 126.312 189.948 126.312 189.324C126.312 188.7 126.816 188.196 127.44 188.196C128.064 188.196 128.568 188.7 128.568 189.324C128.568 189.948 128.064 190.452 127.44 190.452Z" fill="#EF6F12"/>
</svg>
