<svg width="33" height="53" viewBox="0 0 33 53" fill="none" xmlns="http://www.w3.org/2000/svg">
<path d="M9.29249 47.76L10.5678 50.2811L8.13315 52H6.12982L4.19141 48.4476L9.29249 47.76Z" fill="#231F20"/>
<path d="M21.6378 1.86514L23.8405 1.52136L32.9993 19.1688L31.9559 25.1277L32.9993 26.9612V34.4167L26.7968 38.4779L27.7243 40.0822L24.1304 41.3427L23.3188 39.9676L22.5073 40.1968L22.1595 40.7698L20.3045 41.6865L19.8408 40.7698L10.9139 45.6973L7.43591 44.7805L3.6101 47.0724L2.10296 44.2076L2.79856 43.0616L2.10296 41.3416L1.87109 39.7384L3.72603 36.9882L3.03043 35.7276L5.0013 33.6649L5.6969 34.9255L6.50844 32.519L6.74031 29.6542H8.13151V27.3623L4.07383 19.3407L6.97217 17.3926L4.07383 13.2672L6.16064 7.07916L16.8265 3.67916L17.9859 4.78729L19.5568 4.87667V3.80866L21.8117 2.7246L21.6378 1.86514Z" fill="#231F20"/>
<path d="M20.8272 1.40677L23.03 1.06299L32.1887 18.7104L31.1453 24.6693L32.1887 26.5028V33.9583L25.9863 38.0195L26.9137 39.6238L23.3198 40.8844L22.5083 39.5092L21.6967 39.7384L21.3489 40.3114L19.494 41.2281L19.0303 40.3114L10.1034 45.2389L6.62536 44.3222L2.79955 46.614L1.29241 43.7492L1.98802 42.6033L1.29241 40.8832L1.06055 39.28L2.91549 36.5298L2.21988 35.2693L4.19075 33.2066L4.88636 34.4671L5.69789 32.0606L5.92976 29.1958H7.32096V26.9039L3.26329 18.8823L6.16163 16.9342L3.26329 12.8089L5.35009 6.62079L16.016 3.22079L17.1753 4.32891L18.7462 4.4183V3.35028L21.0011 2.26622L20.8272 1.40677Z" fill="white" stroke="#231F20" stroke-width="0.5" stroke-miterlimit="10"/>
<path d="M8.82764 47.5309L10.1029 50.0519L7.66831 51.7709H5.66497L3.72656 48.2184L8.82764 47.5309Z" fill="white" stroke="#231F20" stroke-width="0.5" stroke-miterlimit="10"/>
<path d="M17.9619 40.9005V34.2827H11.7258V32.1753H5.69727" stroke="#231F20" stroke-width="0.5" stroke-linecap="round" stroke-linejoin="round"/>
<path d="M31.8984 31.0293H20.6575V28.7821H16.3633V34.2826" stroke="#231F20" stroke-width="0.5" stroke-linecap="round" stroke-linejoin="round"/>
<path d="M7.32031 26.9039H20.4614V24.1227H18.7583V19.6845H24.1307V15.9694H18.7977H13.2155V20.3721H15.4357L15.4855 26.9039" stroke="#231F20" stroke-width="0.5" stroke-linecap="round" stroke-linejoin="round"/>
<path d="M31.3883 17.1681H24.1309" stroke="#231F20" stroke-width="0.5" stroke-miterlimit="10"/>
<path d="M17.9629 28.7821V26.9039" stroke="#231F20" stroke-width="0.5" stroke-linecap="round" stroke-linejoin="round"/>
<path d="M13.2156 15.9694H5.69727" stroke="#231F20" stroke-width="0.5" stroke-linecap="round" stroke-linejoin="round"/>
<path d="M15.7257 15.9694V10.4025H14.7402V3.73767" stroke="#231F20" stroke-width="0.5" stroke-linecap="round" stroke-linejoin="round"/>
</svg>
