<svg width="23" height="23" viewBox="0 0 23 23" fill="none" xmlns="http://www.w3.org/2000/svg">
<g clip-path="url(#clip0_1327_2194)">
<path d="M5.75 12.9375C6.54391 12.9375 7.1875 12.2939 7.1875 11.5C7.1875 10.7061 6.54391 10.0625 5.75 10.0625C4.95609 10.0625 4.3125 10.7061 4.3125 11.5C4.3125 12.2939 4.95609 12.9375 5.75 12.9375Z" fill="black"/>
<path d="M11.5 12.9375C12.2939 12.9375 12.9375 12.2939 12.9375 11.5C12.9375 10.7061 12.2939 10.0625 11.5 10.0625C10.7061 10.0625 10.0625 10.7061 10.0625 11.5C10.0625 12.2939 10.7061 12.9375 11.5 12.9375Z" fill="black"/>
<path d="M17.25 12.9375C18.0439 12.9375 18.6875 12.2939 18.6875 11.5C18.6875 10.7061 18.0439 10.0625 17.25 10.0625C16.4561 10.0625 15.8125 10.7061 15.8125 11.5C15.8125 12.2939 16.4561 12.9375 17.25 12.9375Z" fill="black"/>
</g>
<defs>
<clipPath id="clip0_1327_2194">
<rect width="23" height="23" fill="white"/>
</clipPath>
</defs>
</svg>
