<svg height="20" viewBox="0 0 20 20" width="20" xmlns="http://www.w3.org/2000/svg"><path d="m12.498793 14.9991503c.276809 0 .501207.2240479.501207.5004249 0 .2456684-.1773021.4499904-.4111144.4923623l-.0900926.0080625h-9.99758604c-.27680896 0-.50120696-.2240478-.50120696-.5004248 0-.2456685.17730212-.4499904.41111438-.4923624l.09009258-.0080625zm5.0002611-5.99209197c.2766648 0 .5009459.22404783.5009459.50042483 0 .24566845-.1772098.44999039-.4109003.49236232l-.0900456.00806252h-14.99810818c-.27666479 0-.50094592-.22404784-.50094592-.50042484 0-.24566845.17720978-.44999039.41090026-.49236232l.09004566-.00806251zm-3.9988229-6.00705833c.2766648 0 .5009459.22404783.5009459.50042483 0 .24566845-.1772097.44999039-.4109002.49236232l-.0900457.00806251h-10.99928528c-.27666479 0-.50094592-.22404782-.50094592-.50042483 0-.24566844.17720978-.44999038.41090026-.49236232l.09004566-.00806251z" fill="#212121"/></svg>