<svg width="9" height="11" viewBox="0 0 9 11" fill="none" xmlns="http://www.w3.org/2000/svg">
<path d="M8.65385 5C8.82378 5 8.96511 5.11792 8.99442 5.27342L9 5.33333V9.33333C9 10.217 8.28586 10.94 7.38303 10.9965L7.26923 11H1.73077C0.813127 11 0.0622809 10.3123 0.00368148 9.44292L0 9.33333V5.33333C0 5.14924 0.154978 5 0.346154 5C0.516088 5 0.657421 5.11792 0.686731 5.27342L0.692308 5.33333V9.33333C0.692308 9.85313 1.10415 10.2803 1.63076 10.3288L1.73077 10.3333H7.26923C7.80902 10.3333 8.25262 9.93674 8.30294 9.42964L8.30769 9.33333V5.33333C8.30769 5.14924 8.46267 5 8.65385 5ZM1.31802 2.92606L4.25523 0.0976311C4.37539 -0.0180798 4.56192 -0.0309366 4.69683 0.0590607L4.74477 0.0976311L7.68198 2.92606C7.81716 3.05623 7.81716 3.26729 7.68198 3.39746C7.56182 3.51317 7.37529 3.52603 7.24039 3.43603L7.19245 3.39746L4.84615 1.138V7.33333C4.84615 7.49697 4.7237 7.63307 4.56222 7.6613L4.5 7.66667C4.33007 7.66667 4.18873 7.54875 4.15942 7.39325L4.15385 7.33333V1.138L1.80756 3.39746C1.68739 3.51317 1.50087 3.52603 1.36596 3.43603L1.31802 3.39746C1.19786 3.28175 1.18451 3.10214 1.27797 2.97222L1.31802 2.92606Z" fill="#212121"/>
</svg>
